PathFileType	4	(X/Y/Z)	C:\Users\u0088756\Documents\documenten\software\SoftwareProjects\DC_TrackingSimulation\Data\Patient20\InputData\MarkerFile_DataSel.trc
DataRate	CameraRate	NumFrames	NumMarkers	Units	OrigDataRate	OrigDataStartFrame	OrigNumFrames
200.000000	200.000000	8	47	m	200.000000	116	230
Frame#	Times		C7		CLAV		LSHO		LUA1		LELB		LLA1		LWRA		LWRB		LFIN		RSHO		RUA1		RELB		RLA1		RWRA		RWRB		RFIN		LASI		RASI		RPSI		LPSI		LTHI		LTHI3		LKNE		LKNEmed		LTIB		LTIB2		LTIB3		LANKmed		LHEE		LTOE		LLatFoot		RTHI		RTHI2		RTHI3		RKNE		RKNEmed		RTIB		RTIB2		RTIB3		RANK		RHEE		RTOE		RLatFoot		Unlabeled50		Unlabeled51		Unlabeled52		*52
			X1	Y1	Z1	X2	Y2	Z2	X3	Y3	Z3	X4	Y4	Z4	X5	Y5	Z5	X6	Y6	Z6	X7	Y7	Z7	X8	Y8	Z8	X9	Y9	Z9	X10	Y10	Z10	X11	Y11	Z11	X12	Y12	Z12	X13	Y13	Z13	X14	Y14	Z14	X15	Y15	Z15	X16	Y16	Z16	X17	Y17	Z17	X18	Y18	Z18	X19	Y19	Z19	X20	Y20	Z20	X21	Y21	Z21	X22	Y22	Z22	X23	Y23	Z23	X24	Y24	Z24	X25	Y25	Z25	X26	Y26	Z26	X27	Y27	Z27	X28	Y28	Z28	X29	Y29	Z29	X30	Y30	Z30	X31	Y31	Z31	X32	Y32	Z32	X33	Y33	Z33	X34	Y34	Z34	X35	Y35	Z35	X36	Y36	Z36	X37	Y37	Z37	X38	Y38	Z38	X39	Y39	Z39	X40	Y40	Z40	X41	Y41	Z41	X42	Y42	Z42	X43	Y43	Z43	X44	Y44	Z44	X45	Y45	Z45	X46	Y46	Z46	X47	Y47	Z47

116	0.575	0.84449	1.3791	0.0014784	0.96945	1.3078	-0.0099989	0.91912	1.3233	-0.18664	0.91347	1.1774	-0.23949	0.98239	1.0681	-0.27019	1.0769	1.0052	-0.27806	1.1819	0.94346	-0.22324	1.1539	0.90901	-0.28001	1.221	0.91272	-0.26868	0.88826	1.3284	0.18008	0.82949	1.1887	0.23536	0.80322	1.0527	0.26573	0.83504	0.94277	0.31431	0.87822	0.81842	0.29226	0.81293	0.82497	0.32189	0.86532	0.76931	0.34049	0.97815	0.8902	-0.12281	0.98852	0.89516	0.085088	0.79348	0.92569	0.031624	0.78971	0.93115	-0.040209	0.86437	0.60859	-0.165	0.8323	0.57544	-0.16202	0.80539	0.4437	-0.13243	0.79054	0.44747	-0.0056189	0.80081	0.36443	-0.12306	0.73245	0.3935	-0.14455	0.75341	0.34068	-0.14801	0.64301	0.1096	-0.031719	0.54885	0.066142	-0.066479	0.73738	0.053922	-0.045616	0.67046	0.030495	-0.12943	1.0248	0.63289	0.15797	0.96851	0.61062	0.16869	1.0126	0.57696	0.15678	1.0586	0.4573	0.13183	1.0664	0.45975	0.0029729	1.134	0.31851	0.14933	1.084	0.29805	0.15064	1.1247	0.26248	0.14834	1.2034	0.11223	0.11543	1.1596	0.043379	0.05921	1.3234	0.12952	0.048806	1.2782	0.07907	0.12975	0.93417	0.031468	-0.54803	0.30762	0.025108	-0.53336	0.35459	0.025972	0.53951	0.86254	0.034118	0.53863
117	0.58	0.85022	1.3781	0.0024531	0.97533	1.3071	-0.0090919	0.9252	1.3225	-0.18575	0.91941	1.1765	-0.23839	0.9883	1.0672	-0.26886	1.083	1.0047	-0.27617	1.1881	0.9435	-0.2206	1.1606	0.9089	-0.27757	1.2276	0.9129	-0.26571	0.89393	1.3275	0.18099	0.8349	1.1877	0.236	0.80845	1.0517	0.26642	0.83994	0.94184	0.31524	0.88289	0.81737	0.29336	0.81777	0.8242	0.32267	0.86964	0.76831	0.34152	0.98451	0.88921	-0.12248	0.99528	0.89438	0.085401	0.80008	0.92499	0.032253	0.79641	0.93042	-0.039555	0.86931	0.60792	-0.16465	0.83708	0.57497	-0.16164	0.80964	0.44323	-0.13204	0.79501	0.447	-0.005177	0.80433	0.36394	-0.12299	0.73618	0.39384	-0.14415	0.75663	0.34075	-0.1478	0.64409	0.11052	-0.031831	0.54947	0.068075	-0.066455	0.73787	0.05389	-0.045785	0.67077	0.030833	-0.12942	1.0322	0.6326	0.15826	0.97606	0.6101	0.16939	1.0201	0.57658	0.157	1.0659	0.45683	0.1315	1.0739	0.4598	0.0027013	1.1401	0.31727	0.14911	1.0898	0.2974	0.15074	1.1301	0.26133	0.14836	1.2072	0.11143	0.11548	1.1612	0.043608	0.059555	1.3268	0.12611	0.048541	1.2809	0.076429	0.1296	0.93971	0.031482	-0.54806	0.31276	0.025051	-0.53308	0.36	0.025929	0.53956	0.86802	0.034035	0.53861
118	0.585	0.85591	1.3772	0.0035065	0.98124	1.3064	-0.008188	0.93129	1.3217	-0.1848	0.9253	1.1757	-0.23728	0.99411	1.0663	-0.26753	1.0891	1.0042	-0.27433	1.1941	0.94348	-0.21806	1.1671	0.90878	-0.2752	1.234	0.91298	-0.26281	0.89958	1.3264	0.18192	0.84036	1.1868	0.23672	0.81374	1.0508	0.26708	0.84487	0.94095	0.31604	0.88767	0.81634	0.29445	0.82266	0.82331	0.32348	0.87409	0.76726	0.34255	0.99096	0.88832	-0.12211	1.0021	0.89357	0.085691	0.80686	0.92431	0.032914	0.80303	0.92987	-0.038874	0.87431	0.60729	-0.16432	0.84188	0.57456	-0.16125	0.81401	0.44278	-0.13176	0.79978	0.44648	-0.0048256	0.80814	0.36382	-0.12276	0.74026	0.39407	-0.14346	0.76006	0.34082	-0.14754	0.64529	0.11149	-0.031937	0.55026	0.07014	-0.066515	0.73848	0.053879	-0.045931	0.67121	0.031195	-0.12953	1.0398	0.63221	0.15843	0.98372	0.6094	0.16967	1.0276	0.57612	0.15721	1.0731	0.45625	0.13118	1.0814	0.45978	0.0024227	1.1459	0.31599	0.1489	1.0952	0.29672	0.1509	1.1354	0.26018	0.14836	1.2102	0.10983	0.1155	1.1629	0.044099	0.059504	1.3301	0.12194	0.048185	1.2834	0.073257	0.12938	0.94531	0.031747	-0.54794	0.31829	0.025016	-0.53307	0.36544	0.02592	0.53955	0.87357	0.034023	0.53863
119	0.59	0.86162	1.3762	0.0047775	0.98722	1.3057	-0.007229	0.93737	1.3209	-0.18385	0.9312	1.1749	-0.23612	0.99988	1.0655	-0.2662	1.0951	1.0036	-0.27248	1.1999	0.94345	-0.21555	1.1735	0.90863	-0.27285	1.2404	0.91299	-0.25996	0.90536	1.3255	0.1829	0.84586	1.1858	0.23742	0.81906	1.0499	0.26774	0.8499	0.94005	0.31692	0.89262	0.81537	0.29551	0.82773	0.82251	0.32423	0.87872	0.76627	0.34356	0.99746	0.88746	-0.12174	1.009	0.89279	0.086041	0.81372	0.92377	0.033607	0.80972	0.92934	-0.038264	0.87939	0.60689	-0.1638	0.84686	0.57416	-0.16085	0.81845	0.44235	-0.1314	0.8048	0.44603	-0.0044219	0.81188	0.36312	-0.12287	0.74402	0.3945	-0.14324	0.76353	0.34093	-0.14727	0.64668	0.11249	-0.032082	0.55111	0.072359	-0.066595	0.7391	0.053814	-0.046041	0.67167	0.031738	-0.12953	1.0473	0.6319	0.15869	0.99213	0.60827	0.16908	1.0353	0.57583	0.15726	1.0801	0.4556	0.13096	1.089	0.45966	0.0021671	1.1516	0.31465	0.14861	1.1005	0.29604	0.15113	1.1403	0.25894	0.14832	1.2127	0.10773	0.11547	1.1644	0.044503	0.059544	1.3335	0.1174	0.047679	1.2858	0.069968	0.12922	0.95064	0.031448	-0.54803	0.32342	0.025024	-0.53315	0.37091	0.025897	0.53954	0.879	0.034052	0.53869
120	0.595	0.86735	1.3754	0.0059729	0.99318	1.3051	-0.0062442	0.94345	1.3201	-0.18289	0.93704	1.1741	-0.235	1.0056	1.0646	-0.26487	1.101	1.003	-0.27065	1.2057	0.94338	-0.21304	1.1797	0.90846	-0.27056	1.2465	0.91291	-0.25714	0.91111	1.3245	0.18389	0.8514	1.1849	0.23814	0.8245	1.049	0.26842	0.85501	0.93919	0.31772	0.89777	0.81445	0.29647	0.83271	0.82164	0.32507	0.88348	0.76536	0.34452	1.004	0.88664	-0.12135	1.016	0.89201	0.086393	0.82048	0.92323	0.034355	0.81648	0.92874	-0.037512	0.8846	0.60636	-0.16345	0.852	0.5737	-0.16039	0.82317	0.44189	-0.131	0.81008	0.44554	-0.0040688	0.81569	0.36266	-0.12259	0.74814	0.39485	-0.14285	0.76681	0.34124	-0.14704	0.64809	0.11357	-0.032249	0.55205	0.074746	-0.066644	0.7398	0.05368	-0.046203	0.67206	0.032266	-0.12955	1.0548	0.63159	0.15891	1.0007	0.60788	0.16929	1.0428	0.57554	0.15745	1.087	0.45496	0.13078	1.0964	0.45944	0.001928	1.1571	0.31322	0.14823	1.1058	0.29533	0.15134	1.1451	0.25772	0.14823	1.2154	0.10576	0.11528	1.1659	0.044748	0.059249	1.3365	0.11296	0.047168	1.2879	0.066963	0.12898	0.95607	0.031443	-0.54803	0.32962	0.025082	-0.53336	0.37634	0.025928	0.53956	0.88448	0.033983	0.53854
121	0.6	0.87311	1.3746	0.006992	0.99918	1.3045	-0.0052726	0.94953	1.3194	-0.18191	0.94296	1.1733	-0.23389	1.0112	1.0637	-0.26356	1.1068	1.0025	-0.26887	1.2114	0.94327	-0.21059	1.1859	0.90827	-0.26834	1.2526	0.91274	-0.25437	0.91689	1.3236	0.18491	0.85696	1.184	0.23893	0.82999	1.0482	0.26907	0.86024	0.93833	0.31855	0.90289	0.8135	0.2975	0.83728	0.82085	0.32608	0.88839	0.7644	0.34548	1.0106	0.88585	-0.12096	1.023	0.89124	0.086746	0.82735	0.92278	0.035119	0.82425	0.92833	-0.03681	0.89	0.60566	-0.16315	0.8572	0.57323	-0.1599	0.828	0.44151	-0.13067	0.81559	0.44512	-0.0037788	0.81989	0.36256	-0.12243	0.75255	0.39521	-0.14236	0.77057	0.34143	-0.14669	0.64958	0.11473	-0.032439	0.55318	0.077328	-0.066719	0.74051	0.053542	-0.046317	0.67246	0.032859	-0.1295	1.0623	0.63129	0.15916	1.0086	0.60745	0.16948	1.0501	0.57522	0.15759	1.0937	0.4543	0.13068	1.1036	0.45905	0.0017857	1.1624	0.31176	0.14781	1.1108	0.29464	0.1515	1.1497	0.25644	0.14798	1.218	0.10403	0.115	1.167	0.044844	0.059439	1.3394	0.10888	0.046599	1.29	0.064321	0.12863	0.96154	0.031411	-0.54804	0.33467	0.025022	-0.53307	0.38211	0.02593	0.53913	0.88995	0.033983	0.53859
122	0.605	0.8789	1.3738	0.0080552	1.0052	1.3041	-0.0042902	0.95556	1.3188	-0.18095	0.94878	1.1726	-0.23281	1.0168	1.0628	-0.26227	1.1125	1.0019	-0.2671	1.217	0.94306	-0.20819	1.1919	0.90803	-0.26611	1.2585	0.91249	-0.25166	0.92278	1.3227	0.18598	0.86259	1.1831	0.23968	0.8355	1.0473	0.26973	0.86553	0.93748	0.31936	0.90824	0.81266	0.29848	0.84235	0.81996	0.32688	0.89339	0.76358	0.34639	1.0172	0.88512	-0.12057	1.03	0.89052	0.087136	0.83426	0.9224	0.035879	0.83102	0.92788	-0.036095	0.89546	0.60484	-0.16278	0.86254	0.57277	-0.1594	0.83303	0.44114	-0.1302	0.8212	0.44476	-0.003539	0.82413	0.3619	-0.12253	0.75721	0.39546	-0.14178	0.77456	0.34167	-0.14639	0.65127	0.11598	-0.032673	0.55432	0.08008	-0.066789	0.74136	0.053364	-0.046491	0.6729	0.033471	-0.12951	1.0696	0.63101	0.15938	1.0163	0.60722	0.16972	1.0573	0.57492	0.15763	1.1004	0.4536	0.13063	1.1107	0.45856	0.0017871	1.1675	0.31034	0.14722	1.1158	0.29382	0.15147	1.154	0.25519	0.14754	1.2206	0.1026	0.11458	1.1687	0.045296	0.05914	1.3421	0.10497	0.045875	1.2919	0.061957	0.12808	0.96703	0.031456	-0.54799	0.34016	0.0251	-0.5334	0.38727	0.02594	0.53956	0.89537	0.034028	0.53863
123	0.61	0.88468	1.3732	0.0091385	1.0113	1.3036	-0.0032748	0.9616	1.3182	-0.17996	0.95458	1.1719	-0.23167	1.0224	1.062	-0.26097	1.1181	1.0013	-0.26534	1.2225	0.94281	-0.20589	1.1978	0.90774	-0.26394	1.2643	0.91213	-0.24902	0.92865	1.3219	0.18706	0.86822	1.1823	0.24048	0.8411	1.0464	0.27037	0.87091	0.93665	0.32015	0.91365	0.81179	0.29941	0.84762	0.81923	0.32757	0.89854	0.76272	0.34733	1.0239	0.88442	-0.12017	1.037	0.88984	0.087497	0.84114	0.92217	0.036719	0.83709	0.92749	-0.03528	0.90115	0.60432	-0.16235	0.86802	0.57231	-0.15888	0.83832	0.44071	-0.12968	0.82546	0.44405	-0.0023578	0.82846	0.36151	-0.12236	0.76195	0.39596	-0.14133	0.77864	0.34197	-0.14599	0.65305	0.11731	-0.032974	0.5556	0.083034	-0.066955	0.7422	0.053112	-0.046652	0.67341	0.034198	-0.12953	1.0769	0.63075	0.15962	1.0236	0.60728	0.16982	1.0644	0.57471	0.15766	1.1068	0.45295	0.13064	1.1174	0.45792	0.0019146	1.1724	0.30898	0.14653	1.1206	0.29301	0.15136	1.1584	0.25401	0.147	1.2234	0.10147	0.11422	1.1704	0.045842	0.058852	1.3447	0.1011	0.045065	1.2939	0.059708	0.12742	0.97247	0.031463	-0.54804	0.34564	0.025026	-0.53321	0.39273	0.025944	0.53956	0.90089	0.034021	0.53862
